<svg width="558" height="810" viewBox="0 0 558 810" fill="none" xmlns="http://www.w3.org/2000/svg">
<path d="M549.743 39.8506C551.094 41.7357 552.963 54.2039 553.359 57.273C585.694 305.278 418.343 552.072 254.965 719.54C234.096 740.906 212.62 761.67 190.564 781.808C182.178 789.528 168.142 802.909 159.281 809.49C167.806 794.509 176.308 780.785 184.397 765.359C203.382 729.144 217.956 690.786 227.807 651.102C253.445 548.353 246.305 451.074 191.309 359.323C148.214 287.781 77.6198 236.092 0 207.719C0.824399 207.557 1.65026 207.404 2.4776 207.259C77.3414 194.324 156.754 193.875 229.471 217.916C269.063 231.006 322.527 255.234 329.098 301.847C334.895 342.961 317.043 382.328 293.656 414.933C307.071 431.602 321.92 450.042 334.778 467.088C342.352 460.478 368.708 438.539 372.676 430.217C391.263 391.228 376.37 333.405 356.105 297.079C349.016 284.376 341.946 274.728 334.587 264.281C364.231 257.165 405.774 236.008 430.785 218.842C479.011 185.746 520.95 135.699 539.85 79.822C544.313 66.6414 547.209 53.5048 549.743 39.8506Z" fill="#ffffffff"/>
<path d="M296.816 0C299.693 0.102744 324.185 8.84333 328.701 10.3003L424.376 41.7934C442.287 47.7501 462.244 55.1579 480.376 59.9414C451.441 67.9926 420.374 81.3391 392.065 89.1115C392.672 90.7847 393.269 92.4624 393.856 94.144C411.317 144.53 382.725 195.854 333.207 212.742C309.077 220.905 282.686 219.135 259.858 207.821C235.863 195.807 219.758 175.952 211.448 150.691C205.288 128.574 206.084 114.531 212.805 92.9428C204.853 91.2388 192.242 86.9308 184.156 84.4288C173.925 81.2628 157.705 76.9798 148.399 72.3803C155.739 71.6303 162.828 69.1918 169.937 67.1139C181.178 63.8472 192.368 60.4062 203.503 56.7921C209.041 55.0332 215.568 53.2645 221.098 51.3686C228.101 50.42 223.522 42.1491 220.726 42.9011C193.866 50.1274 166.74 61.4459 139.706 67.4936C141.229 68.431 141.902 68.8953 143.295 70.0138C142.104 70.0069 142.699 69.9737 141.508 70.1146C139.093 73.761 140.924 81.4375 139.72 85.2488C137.559 92.0925 140.262 90.0293 141.736 95.575C144.875 107.382 130.895 114.198 126.796 101.57C124.824 95.4953 132.626 92.4208 131.044 87.903C129.663 81.8998 130.363 73.5222 130.437 67.1849C124.529 65.3996 118.24 63.5438 112.619 61.0242C130.105 55.7774 147.682 49.3764 165.014 43.5386L244.653 17.012C260.086 11.8283 281.206 4.19783 296.816 0Z" fill="#ffffffff"/>
</svg>
